%TF.GenerationSoftware,KiCad,Pcbnew,(7.0.0)*%
%TF.CreationDate,2023-03-11T14:16:37+01:00*%
%TF.ProjectId,AVI_Computer,4156495f-436f-46d7-9075-7465722e6b69,rev?*%
%TF.SameCoordinates,Original*%
%TF.FileFunction,Soldermask,Top*%
%TF.FilePolarity,Negative*%
%FSLAX46Y46*%
G04 Gerber Fmt 4.6, Leading zero omitted, Abs format (unit mm)*
G04 Created by KiCad (PCBNEW (7.0.0)) date 2023-03-11 14:16:37*
%MOMM*%
%LPD*%
G01*
G04 APERTURE LIST*
G04 Aperture macros list*
%AMRoundRect*
0 Rectangle with rounded corners*
0 $1 Rounding radius*
0 $2 $3 $4 $5 $6 $7 $8 $9 X,Y pos of 4 corners*
0 Add a 4 corners polygon primitive as box body*
4,1,4,$2,$3,$4,$5,$6,$7,$8,$9,$2,$3,0*
0 Add four circle primitives for the rounded corners*
1,1,$1+$1,$2,$3*
1,1,$1+$1,$4,$5*
1,1,$1+$1,$6,$7*
1,1,$1+$1,$8,$9*
0 Add four rect primitives between the rounded corners*
20,1,$1+$1,$2,$3,$4,$5,0*
20,1,$1+$1,$4,$5,$6,$7,0*
20,1,$1+$1,$6,$7,$8,$9,0*
20,1,$1+$1,$8,$9,$2,$3,0*%
G04 Aperture macros list end*
%ADD10C,0.650000*%
%ADD11R,0.600000X1.150000*%
%ADD12R,0.300000X1.150000*%
%ADD13O,1.000000X2.100000*%
%ADD14O,1.000000X1.800000*%
%ADD15RoundRect,0.250000X0.450000X-0.350000X0.450000X0.350000X-0.450000X0.350000X-0.450000X-0.350000X0*%
%ADD16R,1.000000X1.400000*%
%ADD17R,1.700000X1.700000*%
%ADD18O,1.700000X1.700000*%
%ADD19R,0.475000X0.450000*%
%ADD20R,1.150000X0.600000*%
%ADD21R,1.450000X1.150000*%
%ADD22R,0.250000X0.275000*%
%ADD23R,0.275000X0.250000*%
%ADD24R,0.550000X0.300000*%
%ADD25R,0.300000X0.550000*%
%ADD26R,1.070000X1.780000*%
%ADD27R,0.800000X0.400000*%
%ADD28R,0.400000X0.800000*%
%ADD29R,1.200000X1.200000*%
%ADD30R,0.800000X0.800000*%
%ADD31R,1.490000X0.960000*%
G04 APERTURE END LIST*
D10*
%TO.C,J1*%
X157860000Y-121645000D03*
X163640000Y-121645000D03*
D11*
X157549999Y-120569999D03*
X158349999Y-120569999D03*
D12*
X159499999Y-120569999D03*
X160499999Y-120569999D03*
X160999999Y-120569999D03*
X161999999Y-120569999D03*
D11*
X163149999Y-120569999D03*
X163949999Y-120569999D03*
X163949999Y-120569999D03*
X163149999Y-120569999D03*
D12*
X162499999Y-120569999D03*
X161499999Y-120569999D03*
X159999999Y-120569999D03*
X158999999Y-120569999D03*
D11*
X158349999Y-120569999D03*
X157549999Y-120569999D03*
D13*
X156429999Y-121144999D03*
D14*
X156429999Y-125324999D03*
D13*
X165069999Y-121144999D03*
D14*
X165069999Y-125324999D03*
%TD*%
D15*
%TO.C,R3*%
X149500000Y-105200000D03*
X149500000Y-103200000D03*
%TD*%
D16*
%TO.C,R2*%
X152549999Y-120499999D03*
X154449999Y-120499999D03*
%TD*%
D17*
%TO.C,J2*%
X171499999Y-103709999D03*
D18*
X171499999Y-106249999D03*
X171499999Y-108789999D03*
X171499999Y-111329999D03*
X171499999Y-113869999D03*
X171499999Y-116409999D03*
%TD*%
D16*
%TO.C,R1*%
X168949999Y-120499999D03*
X167049999Y-120499999D03*
%TD*%
D17*
%TO.C,J3*%
X145499999Y-126974999D03*
D18*
X145499999Y-129514999D03*
%TD*%
D17*
%TO.C,J5*%
X168249999Y-124224999D03*
D18*
X168249999Y-126764999D03*
%TD*%
D19*
%TO.C,Q2*%
X144411999Y-123099999D03*
X144411999Y-123749999D03*
X144411999Y-124399999D03*
X146587999Y-124399999D03*
X146587999Y-123749999D03*
X146587999Y-123099999D03*
%TD*%
D20*
%TO.C,IC3*%
X144449999Y-112546999D03*
X144449999Y-113499999D03*
X144449999Y-114452999D03*
X147049999Y-114452999D03*
X147049999Y-112546999D03*
%TD*%
%TO.C,IC2*%
X144449999Y-116546999D03*
X144449999Y-117499999D03*
X144449999Y-118452999D03*
X147049999Y-118452999D03*
X147049999Y-116546999D03*
%TD*%
D21*
%TO.C,L2*%
X148999999Y-112599999D03*
X148999999Y-114399999D03*
%TD*%
D17*
%TO.C,J4*%
X150249999Y-126974999D03*
D18*
X150249999Y-129514999D03*
%TD*%
D22*
%TO.C,IC4*%
X145899999Y-107886999D03*
X145399999Y-107886999D03*
D23*
X144887999Y-108149999D03*
X144887999Y-108649999D03*
X144887999Y-109149999D03*
D22*
X145399999Y-109412999D03*
X145899999Y-109412999D03*
D23*
X146411999Y-109149999D03*
X146411999Y-108649999D03*
X146411999Y-108149999D03*
%TD*%
D24*
%TO.C,IC5*%
X148299999Y-107849999D03*
X148299999Y-108349999D03*
X148299999Y-108849999D03*
X148299999Y-109349999D03*
D25*
X149299999Y-109749999D03*
X149799999Y-109749999D03*
X150299999Y-109749999D03*
D24*
X151299999Y-109349999D03*
X151299999Y-108849999D03*
X151299999Y-108349999D03*
X151299999Y-107849999D03*
D25*
X150299999Y-107449999D03*
X149799999Y-107449999D03*
X149299999Y-107449999D03*
%TD*%
D26*
%TO.C,C1*%
X144389999Y-120499999D03*
X147109999Y-120499999D03*
%TD*%
D27*
%TO.C,IC1*%
X153899999Y-104654999D03*
X153899999Y-105504999D03*
X153899999Y-106354999D03*
X153899999Y-107204999D03*
X153899999Y-108054999D03*
X153899999Y-108904999D03*
X153899999Y-109754999D03*
X153899999Y-110604999D03*
X153899999Y-111454999D03*
X153899999Y-112304999D03*
X153899999Y-113154999D03*
X153899999Y-114004999D03*
X153899999Y-114854999D03*
X153899999Y-115704999D03*
X153899999Y-116554999D03*
D28*
X154949999Y-117604999D03*
X155799999Y-117604999D03*
X156649999Y-117604999D03*
X157499999Y-117604999D03*
X158349999Y-117604999D03*
X159199999Y-117604999D03*
X160049999Y-117604999D03*
X160899999Y-117604999D03*
X161749999Y-117604999D03*
X162599999Y-117604999D03*
X163449999Y-117604999D03*
X164299999Y-117604999D03*
X165149999Y-117604999D03*
X165999999Y-117604999D03*
X166849999Y-117604999D03*
D27*
X167899999Y-116554999D03*
X167899999Y-115704999D03*
X167899999Y-114854999D03*
X167899999Y-114004999D03*
X167899999Y-113154999D03*
X167899999Y-112304999D03*
X167899999Y-111454999D03*
X167899999Y-110604999D03*
X167899999Y-109754999D03*
X167899999Y-108904999D03*
X167899999Y-108054999D03*
X167899999Y-107204999D03*
X167899999Y-106354999D03*
X167899999Y-105504999D03*
X167899999Y-104654999D03*
D28*
X166849999Y-103604999D03*
X165999999Y-103604999D03*
X165149999Y-103604999D03*
X164299999Y-103604999D03*
X163449999Y-103604999D03*
X162599999Y-103604999D03*
X161749999Y-103604999D03*
X160899999Y-103604999D03*
X160049999Y-103604999D03*
X159199999Y-103604999D03*
X158349999Y-103604999D03*
X157499999Y-103604999D03*
X156649999Y-103604999D03*
X155799999Y-103604999D03*
X154949999Y-103604999D03*
D29*
X160899999Y-110604999D03*
D30*
X153899999Y-103604999D03*
X153899999Y-117604999D03*
X167899999Y-117604999D03*
X167899999Y-103604999D03*
D29*
X159249999Y-108954999D03*
X159249999Y-110604999D03*
X159249999Y-112254999D03*
X160899999Y-112254999D03*
X162549999Y-112254999D03*
X162549999Y-110604999D03*
X162549999Y-108954999D03*
X160899999Y-108954999D03*
%TD*%
D19*
%TO.C,Q1*%
X149161999Y-123099999D03*
X149161999Y-123749999D03*
X149161999Y-124399999D03*
X151337999Y-124399999D03*
X151337999Y-123749999D03*
X151337999Y-123099999D03*
%TD*%
D21*
%TO.C,L1*%
X148999999Y-116599999D03*
X148999999Y-118399999D03*
%TD*%
D31*
%TO.C,C3*%
X151249999Y-114839999D03*
X151249999Y-113159999D03*
%TD*%
D15*
%TO.C,R4*%
X145600000Y-105200000D03*
X145600000Y-103200000D03*
%TD*%
M02*
