M48
; DRILL file {KiCad (7.0.0)} date Sat Mar 11 14:20:23 2023
; FORMAT={-:-/ absolute / inch / decimal}
; #@! TF.CreationDate,2023-03-11T14:20:23+01:00
; #@! TF.GenerationSoftware,Kicad,Pcbnew,(7.0.0)
; #@! TF.FileFunction,Plated,1,2,PTH
FMAT,2
INCH
; #@! TA.AperFunction,Plated,PTH,ViaDrill
T1C0.0079
; #@! TA.AperFunction,Plated,PTH,ViaDrill
T2C0.0157
; #@! TA.AperFunction,Plated,PTH,ComponentDrill
T3C0.0236
; #@! TA.AperFunction,Plated,PTH,ComponentDrill
T4C0.0394
%
G90
G05
T1
X5.6693Y-4.3543
X5.7254Y-4.2687
X5.7402Y-4.2835
X5.8819Y-4.252
X5.8819Y-4.2835
X5.9134Y-4.5669
X5.9606Y-4.6063
X6.2028Y-4.7469
X6.2362Y-4.8504
T2
X5.689Y-4.8031
X5.7323Y-4.1417
X5.8169Y-4.9508
X6.0039Y-4.9508
X6.0157Y-4.2835
X6.0827Y-4.8031
X6.1122Y-4.3209
X6.1122Y-4.3602
X6.1654Y-4.4882
X6.1654Y-4.5276
X6.1654Y-4.5669
X6.2047Y-4.5669
X6.6831Y-4.1831
X6.6831Y-4.2815
X6.6831Y-4.3799
X6.6831Y-4.4783
T4
X5.7283Y-4.999
X5.7283Y-5.099
X5.9154Y-4.999
X5.9154Y-5.099
X6.624Y-4.8907
X6.624Y-4.9907
X6.752Y-4.0831
X6.752Y-4.1831
X6.752Y-4.2831
X6.752Y-4.3831
X6.752Y-4.4831
X6.752Y-4.5831
T3
G00X6.1587Y-4.7478
M15
G01X6.1587Y-4.7911
M16
G05
G00X6.1587Y-4.9183
M15
G01X6.1587Y-4.9498
M16
G05
G00X6.4988Y-4.7478
M15
G01X6.4988Y-4.7911
M16
G05
G00X6.4988Y-4.9183
M15
G01X6.4988Y-4.9498
M16
G05
T0
M30
