%TF.GenerationSoftware,KiCad,Pcbnew,(7.0.0)*%
%TF.CreationDate,2023-03-11T14:16:37+01:00*%
%TF.ProjectId,AVI_Computer,4156495f-436f-46d7-9075-7465722e6b69,rev?*%
%TF.SameCoordinates,Original*%
%TF.FileFunction,Legend,Top*%
%TF.FilePolarity,Positive*%
%FSLAX46Y46*%
G04 Gerber Fmt 4.6, Leading zero omitted, Abs format (unit mm)*
G04 Created by KiCad (PCBNEW (7.0.0)) date 2023-03-11 14:16:37*
%MOMM*%
%LPD*%
G01*
G04 APERTURE LIST*
%ADD10C,0.150000*%
%ADD11C,0.254000*%
%ADD12C,0.120000*%
%ADD13C,0.200000*%
%ADD14C,0.100000*%
%ADD15C,0.250000*%
G04 APERTURE END LIST*
D10*
%TO.C,J1*%
X160416666Y-123617380D02*
X160416666Y-124331666D01*
X160416666Y-124331666D02*
X160369047Y-124474523D01*
X160369047Y-124474523D02*
X160273809Y-124569761D01*
X160273809Y-124569761D02*
X160130952Y-124617380D01*
X160130952Y-124617380D02*
X160035714Y-124617380D01*
X161416666Y-124617380D02*
X160845238Y-124617380D01*
X161130952Y-124617380D02*
X161130952Y-123617380D01*
X161130952Y-123617380D02*
X161035714Y-123760238D01*
X161035714Y-123760238D02*
X160940476Y-123855476D01*
X160940476Y-123855476D02*
X160845238Y-123903095D01*
%TO.C,R3*%
X149867380Y-104366666D02*
X149391190Y-104699999D01*
X149867380Y-104938094D02*
X148867380Y-104938094D01*
X148867380Y-104938094D02*
X148867380Y-104557142D01*
X148867380Y-104557142D02*
X148915000Y-104461904D01*
X148915000Y-104461904D02*
X148962619Y-104414285D01*
X148962619Y-104414285D02*
X149057857Y-104366666D01*
X149057857Y-104366666D02*
X149200714Y-104366666D01*
X149200714Y-104366666D02*
X149295952Y-104414285D01*
X149295952Y-104414285D02*
X149343571Y-104461904D01*
X149343571Y-104461904D02*
X149391190Y-104557142D01*
X149391190Y-104557142D02*
X149391190Y-104938094D01*
X148867380Y-104033332D02*
X148867380Y-103414285D01*
X148867380Y-103414285D02*
X149248333Y-103747618D01*
X149248333Y-103747618D02*
X149248333Y-103604761D01*
X149248333Y-103604761D02*
X149295952Y-103509523D01*
X149295952Y-103509523D02*
X149343571Y-103461904D01*
X149343571Y-103461904D02*
X149438809Y-103414285D01*
X149438809Y-103414285D02*
X149676904Y-103414285D01*
X149676904Y-103414285D02*
X149772142Y-103461904D01*
X149772142Y-103461904D02*
X149819761Y-103509523D01*
X149819761Y-103509523D02*
X149867380Y-103604761D01*
X149867380Y-103604761D02*
X149867380Y-103890475D01*
X149867380Y-103890475D02*
X149819761Y-103985713D01*
X149819761Y-103985713D02*
X149772142Y-104033332D01*
D11*
%TO.C,R2*%
X153288333Y-120966573D02*
X152864999Y-120361811D01*
X152562618Y-120966573D02*
X152562618Y-119696573D01*
X152562618Y-119696573D02*
X153046428Y-119696573D01*
X153046428Y-119696573D02*
X153167380Y-119757050D01*
X153167380Y-119757050D02*
X153227857Y-119817526D01*
X153227857Y-119817526D02*
X153288333Y-119938478D01*
X153288333Y-119938478D02*
X153288333Y-120119907D01*
X153288333Y-120119907D02*
X153227857Y-120240859D01*
X153227857Y-120240859D02*
X153167380Y-120301335D01*
X153167380Y-120301335D02*
X153046428Y-120361811D01*
X153046428Y-120361811D02*
X152562618Y-120361811D01*
X153772142Y-119817526D02*
X153832618Y-119757050D01*
X153832618Y-119757050D02*
X153953571Y-119696573D01*
X153953571Y-119696573D02*
X154255952Y-119696573D01*
X154255952Y-119696573D02*
X154376904Y-119757050D01*
X154376904Y-119757050D02*
X154437380Y-119817526D01*
X154437380Y-119817526D02*
X154497857Y-119938478D01*
X154497857Y-119938478D02*
X154497857Y-120059430D01*
X154497857Y-120059430D02*
X154437380Y-120240859D01*
X154437380Y-120240859D02*
X153711666Y-120966573D01*
X153711666Y-120966573D02*
X154497857Y-120966573D01*
D10*
%TO.C,J2*%
X171166666Y-100747380D02*
X171166666Y-101461666D01*
X171166666Y-101461666D02*
X171119047Y-101604523D01*
X171119047Y-101604523D02*
X171023809Y-101699761D01*
X171023809Y-101699761D02*
X170880952Y-101747380D01*
X170880952Y-101747380D02*
X170785714Y-101747380D01*
X171595238Y-100842619D02*
X171642857Y-100795000D01*
X171642857Y-100795000D02*
X171738095Y-100747380D01*
X171738095Y-100747380D02*
X171976190Y-100747380D01*
X171976190Y-100747380D02*
X172071428Y-100795000D01*
X172071428Y-100795000D02*
X172119047Y-100842619D01*
X172119047Y-100842619D02*
X172166666Y-100937857D01*
X172166666Y-100937857D02*
X172166666Y-101033095D01*
X172166666Y-101033095D02*
X172119047Y-101175952D01*
X172119047Y-101175952D02*
X171547619Y-101747380D01*
X171547619Y-101747380D02*
X172166666Y-101747380D01*
D11*
%TO.C,R1*%
X167788333Y-120966573D02*
X167364999Y-120361811D01*
X167062618Y-120966573D02*
X167062618Y-119696573D01*
X167062618Y-119696573D02*
X167546428Y-119696573D01*
X167546428Y-119696573D02*
X167667380Y-119757050D01*
X167667380Y-119757050D02*
X167727857Y-119817526D01*
X167727857Y-119817526D02*
X167788333Y-119938478D01*
X167788333Y-119938478D02*
X167788333Y-120119907D01*
X167788333Y-120119907D02*
X167727857Y-120240859D01*
X167727857Y-120240859D02*
X167667380Y-120301335D01*
X167667380Y-120301335D02*
X167546428Y-120361811D01*
X167546428Y-120361811D02*
X167062618Y-120361811D01*
X168997857Y-120966573D02*
X168272142Y-120966573D01*
X168634999Y-120966573D02*
X168634999Y-119696573D01*
X168634999Y-119696573D02*
X168514047Y-119878002D01*
X168514047Y-119878002D02*
X168393095Y-119998954D01*
X168393095Y-119998954D02*
X168272142Y-120059430D01*
D10*
%TO.C,J3*%
X145166666Y-124012380D02*
X145166666Y-124726666D01*
X145166666Y-124726666D02*
X145119047Y-124869523D01*
X145119047Y-124869523D02*
X145023809Y-124964761D01*
X145023809Y-124964761D02*
X144880952Y-125012380D01*
X144880952Y-125012380D02*
X144785714Y-125012380D01*
X145547619Y-124012380D02*
X146166666Y-124012380D01*
X146166666Y-124012380D02*
X145833333Y-124393333D01*
X145833333Y-124393333D02*
X145976190Y-124393333D01*
X145976190Y-124393333D02*
X146071428Y-124440952D01*
X146071428Y-124440952D02*
X146119047Y-124488571D01*
X146119047Y-124488571D02*
X146166666Y-124583809D01*
X146166666Y-124583809D02*
X146166666Y-124821904D01*
X146166666Y-124821904D02*
X146119047Y-124917142D01*
X146119047Y-124917142D02*
X146071428Y-124964761D01*
X146071428Y-124964761D02*
X145976190Y-125012380D01*
X145976190Y-125012380D02*
X145690476Y-125012380D01*
X145690476Y-125012380D02*
X145595238Y-124964761D01*
X145595238Y-124964761D02*
X145547619Y-124917142D01*
%TO.C,J5*%
X167916666Y-121262380D02*
X167916666Y-121976666D01*
X167916666Y-121976666D02*
X167869047Y-122119523D01*
X167869047Y-122119523D02*
X167773809Y-122214761D01*
X167773809Y-122214761D02*
X167630952Y-122262380D01*
X167630952Y-122262380D02*
X167535714Y-122262380D01*
X168869047Y-121262380D02*
X168392857Y-121262380D01*
X168392857Y-121262380D02*
X168345238Y-121738571D01*
X168345238Y-121738571D02*
X168392857Y-121690952D01*
X168392857Y-121690952D02*
X168488095Y-121643333D01*
X168488095Y-121643333D02*
X168726190Y-121643333D01*
X168726190Y-121643333D02*
X168821428Y-121690952D01*
X168821428Y-121690952D02*
X168869047Y-121738571D01*
X168869047Y-121738571D02*
X168916666Y-121833809D01*
X168916666Y-121833809D02*
X168916666Y-122071904D01*
X168916666Y-122071904D02*
X168869047Y-122167142D01*
X168869047Y-122167142D02*
X168821428Y-122214761D01*
X168821428Y-122214761D02*
X168726190Y-122262380D01*
X168726190Y-122262380D02*
X168488095Y-122262380D01*
X168488095Y-122262380D02*
X168392857Y-122214761D01*
X168392857Y-122214761D02*
X168345238Y-122167142D01*
D11*
%TO.C,Q2*%
X145379047Y-124337526D02*
X145258095Y-124277050D01*
X145258095Y-124277050D02*
X145137142Y-124156097D01*
X145137142Y-124156097D02*
X144955714Y-123974669D01*
X144955714Y-123974669D02*
X144834761Y-123914192D01*
X144834761Y-123914192D02*
X144713809Y-123914192D01*
X144774285Y-124216573D02*
X144653333Y-124156097D01*
X144653333Y-124156097D02*
X144532380Y-124035145D01*
X144532380Y-124035145D02*
X144471904Y-123793240D01*
X144471904Y-123793240D02*
X144471904Y-123369907D01*
X144471904Y-123369907D02*
X144532380Y-123128002D01*
X144532380Y-123128002D02*
X144653333Y-123007050D01*
X144653333Y-123007050D02*
X144774285Y-122946573D01*
X144774285Y-122946573D02*
X145016190Y-122946573D01*
X145016190Y-122946573D02*
X145137142Y-123007050D01*
X145137142Y-123007050D02*
X145258095Y-123128002D01*
X145258095Y-123128002D02*
X145318571Y-123369907D01*
X145318571Y-123369907D02*
X145318571Y-123793240D01*
X145318571Y-123793240D02*
X145258095Y-124035145D01*
X145258095Y-124035145D02*
X145137142Y-124156097D01*
X145137142Y-124156097D02*
X145016190Y-124216573D01*
X145016190Y-124216573D02*
X144774285Y-124216573D01*
X145802380Y-123067526D02*
X145862856Y-123007050D01*
X145862856Y-123007050D02*
X145983809Y-122946573D01*
X145983809Y-122946573D02*
X146286190Y-122946573D01*
X146286190Y-122946573D02*
X146407142Y-123007050D01*
X146407142Y-123007050D02*
X146467618Y-123067526D01*
X146467618Y-123067526D02*
X146528095Y-123188478D01*
X146528095Y-123188478D02*
X146528095Y-123309430D01*
X146528095Y-123309430D02*
X146467618Y-123490859D01*
X146467618Y-123490859D02*
X145741904Y-124216573D01*
X145741904Y-124216573D02*
X146528095Y-124216573D01*
%TO.C,IC3*%
X144510237Y-113966573D02*
X144510237Y-112696573D01*
X145840714Y-113845621D02*
X145780238Y-113906097D01*
X145780238Y-113906097D02*
X145598809Y-113966573D01*
X145598809Y-113966573D02*
X145477857Y-113966573D01*
X145477857Y-113966573D02*
X145296428Y-113906097D01*
X145296428Y-113906097D02*
X145175476Y-113785145D01*
X145175476Y-113785145D02*
X145114999Y-113664192D01*
X145114999Y-113664192D02*
X145054523Y-113422288D01*
X145054523Y-113422288D02*
X145054523Y-113240859D01*
X145054523Y-113240859D02*
X145114999Y-112998954D01*
X145114999Y-112998954D02*
X145175476Y-112878002D01*
X145175476Y-112878002D02*
X145296428Y-112757050D01*
X145296428Y-112757050D02*
X145477857Y-112696573D01*
X145477857Y-112696573D02*
X145598809Y-112696573D01*
X145598809Y-112696573D02*
X145780238Y-112757050D01*
X145780238Y-112757050D02*
X145840714Y-112817526D01*
X146264047Y-112696573D02*
X147050238Y-112696573D01*
X147050238Y-112696573D02*
X146626904Y-113180383D01*
X146626904Y-113180383D02*
X146808333Y-113180383D01*
X146808333Y-113180383D02*
X146929285Y-113240859D01*
X146929285Y-113240859D02*
X146989761Y-113301335D01*
X146989761Y-113301335D02*
X147050238Y-113422288D01*
X147050238Y-113422288D02*
X147050238Y-113724669D01*
X147050238Y-113724669D02*
X146989761Y-113845621D01*
X146989761Y-113845621D02*
X146929285Y-113906097D01*
X146929285Y-113906097D02*
X146808333Y-113966573D01*
X146808333Y-113966573D02*
X146445476Y-113966573D01*
X146445476Y-113966573D02*
X146324523Y-113906097D01*
X146324523Y-113906097D02*
X146264047Y-113845621D01*
%TO.C,IC2*%
X144510237Y-117966573D02*
X144510237Y-116696573D01*
X145840714Y-117845621D02*
X145780238Y-117906097D01*
X145780238Y-117906097D02*
X145598809Y-117966573D01*
X145598809Y-117966573D02*
X145477857Y-117966573D01*
X145477857Y-117966573D02*
X145296428Y-117906097D01*
X145296428Y-117906097D02*
X145175476Y-117785145D01*
X145175476Y-117785145D02*
X145114999Y-117664192D01*
X145114999Y-117664192D02*
X145054523Y-117422288D01*
X145054523Y-117422288D02*
X145054523Y-117240859D01*
X145054523Y-117240859D02*
X145114999Y-116998954D01*
X145114999Y-116998954D02*
X145175476Y-116878002D01*
X145175476Y-116878002D02*
X145296428Y-116757050D01*
X145296428Y-116757050D02*
X145477857Y-116696573D01*
X145477857Y-116696573D02*
X145598809Y-116696573D01*
X145598809Y-116696573D02*
X145780238Y-116757050D01*
X145780238Y-116757050D02*
X145840714Y-116817526D01*
X146324523Y-116817526D02*
X146384999Y-116757050D01*
X146384999Y-116757050D02*
X146505952Y-116696573D01*
X146505952Y-116696573D02*
X146808333Y-116696573D01*
X146808333Y-116696573D02*
X146929285Y-116757050D01*
X146929285Y-116757050D02*
X146989761Y-116817526D01*
X146989761Y-116817526D02*
X147050238Y-116938478D01*
X147050238Y-116938478D02*
X147050238Y-117059430D01*
X147050238Y-117059430D02*
X146989761Y-117240859D01*
X146989761Y-117240859D02*
X146264047Y-117966573D01*
X146264047Y-117966573D02*
X147050238Y-117966573D01*
%TO.C,L2*%
X149466573Y-113711666D02*
X149466573Y-114316428D01*
X149466573Y-114316428D02*
X148196573Y-114316428D01*
X148317526Y-113348809D02*
X148257050Y-113288333D01*
X148257050Y-113288333D02*
X148196573Y-113167380D01*
X148196573Y-113167380D02*
X148196573Y-112864999D01*
X148196573Y-112864999D02*
X148257050Y-112744047D01*
X148257050Y-112744047D02*
X148317526Y-112683571D01*
X148317526Y-112683571D02*
X148438478Y-112623094D01*
X148438478Y-112623094D02*
X148559430Y-112623094D01*
X148559430Y-112623094D02*
X148740859Y-112683571D01*
X148740859Y-112683571D02*
X149466573Y-113409285D01*
X149466573Y-113409285D02*
X149466573Y-112623094D01*
D10*
%TO.C,J4*%
X149916666Y-124012380D02*
X149916666Y-124726666D01*
X149916666Y-124726666D02*
X149869047Y-124869523D01*
X149869047Y-124869523D02*
X149773809Y-124964761D01*
X149773809Y-124964761D02*
X149630952Y-125012380D01*
X149630952Y-125012380D02*
X149535714Y-125012380D01*
X150821428Y-124345714D02*
X150821428Y-125012380D01*
X150583333Y-123964761D02*
X150345238Y-124679047D01*
X150345238Y-124679047D02*
X150964285Y-124679047D01*
D11*
%TO.C,IC4*%
X144410237Y-109116573D02*
X144410237Y-107846573D01*
X145740714Y-108995621D02*
X145680238Y-109056097D01*
X145680238Y-109056097D02*
X145498809Y-109116573D01*
X145498809Y-109116573D02*
X145377857Y-109116573D01*
X145377857Y-109116573D02*
X145196428Y-109056097D01*
X145196428Y-109056097D02*
X145075476Y-108935145D01*
X145075476Y-108935145D02*
X145014999Y-108814192D01*
X145014999Y-108814192D02*
X144954523Y-108572288D01*
X144954523Y-108572288D02*
X144954523Y-108390859D01*
X144954523Y-108390859D02*
X145014999Y-108148954D01*
X145014999Y-108148954D02*
X145075476Y-108028002D01*
X145075476Y-108028002D02*
X145196428Y-107907050D01*
X145196428Y-107907050D02*
X145377857Y-107846573D01*
X145377857Y-107846573D02*
X145498809Y-107846573D01*
X145498809Y-107846573D02*
X145680238Y-107907050D01*
X145680238Y-107907050D02*
X145740714Y-107967526D01*
X146829285Y-108269907D02*
X146829285Y-109116573D01*
X146526904Y-107786097D02*
X146224523Y-108693240D01*
X146224523Y-108693240D02*
X147010714Y-108693240D01*
%TO.C,IC5*%
X148560237Y-109066573D02*
X148560237Y-107796573D01*
X149890714Y-108945621D02*
X149830238Y-109006097D01*
X149830238Y-109006097D02*
X149648809Y-109066573D01*
X149648809Y-109066573D02*
X149527857Y-109066573D01*
X149527857Y-109066573D02*
X149346428Y-109006097D01*
X149346428Y-109006097D02*
X149225476Y-108885145D01*
X149225476Y-108885145D02*
X149164999Y-108764192D01*
X149164999Y-108764192D02*
X149104523Y-108522288D01*
X149104523Y-108522288D02*
X149104523Y-108340859D01*
X149104523Y-108340859D02*
X149164999Y-108098954D01*
X149164999Y-108098954D02*
X149225476Y-107978002D01*
X149225476Y-107978002D02*
X149346428Y-107857050D01*
X149346428Y-107857050D02*
X149527857Y-107796573D01*
X149527857Y-107796573D02*
X149648809Y-107796573D01*
X149648809Y-107796573D02*
X149830238Y-107857050D01*
X149830238Y-107857050D02*
X149890714Y-107917526D01*
X151039761Y-107796573D02*
X150434999Y-107796573D01*
X150434999Y-107796573D02*
X150374523Y-108401335D01*
X150374523Y-108401335D02*
X150434999Y-108340859D01*
X150434999Y-108340859D02*
X150555952Y-108280383D01*
X150555952Y-108280383D02*
X150858333Y-108280383D01*
X150858333Y-108280383D02*
X150979285Y-108340859D01*
X150979285Y-108340859D02*
X151039761Y-108401335D01*
X151039761Y-108401335D02*
X151100238Y-108522288D01*
X151100238Y-108522288D02*
X151100238Y-108824669D01*
X151100238Y-108824669D02*
X151039761Y-108945621D01*
X151039761Y-108945621D02*
X150979285Y-109006097D01*
X150979285Y-109006097D02*
X150858333Y-109066573D01*
X150858333Y-109066573D02*
X150555952Y-109066573D01*
X150555952Y-109066573D02*
X150434999Y-109006097D01*
X150434999Y-109006097D02*
X150374523Y-108945621D01*
%TO.C,C1*%
X145538333Y-120845621D02*
X145477857Y-120906097D01*
X145477857Y-120906097D02*
X145296428Y-120966573D01*
X145296428Y-120966573D02*
X145175476Y-120966573D01*
X145175476Y-120966573D02*
X144994047Y-120906097D01*
X144994047Y-120906097D02*
X144873095Y-120785145D01*
X144873095Y-120785145D02*
X144812618Y-120664192D01*
X144812618Y-120664192D02*
X144752142Y-120422288D01*
X144752142Y-120422288D02*
X144752142Y-120240859D01*
X144752142Y-120240859D02*
X144812618Y-119998954D01*
X144812618Y-119998954D02*
X144873095Y-119878002D01*
X144873095Y-119878002D02*
X144994047Y-119757050D01*
X144994047Y-119757050D02*
X145175476Y-119696573D01*
X145175476Y-119696573D02*
X145296428Y-119696573D01*
X145296428Y-119696573D02*
X145477857Y-119757050D01*
X145477857Y-119757050D02*
X145538333Y-119817526D01*
X146747857Y-120966573D02*
X146022142Y-120966573D01*
X146384999Y-120966573D02*
X146384999Y-119696573D01*
X146384999Y-119696573D02*
X146264047Y-119878002D01*
X146264047Y-119878002D02*
X146143095Y-119998954D01*
X146143095Y-119998954D02*
X146022142Y-120059430D01*
%TO.C,IC1*%
X159660237Y-111071573D02*
X159660237Y-109801573D01*
X160990714Y-110950621D02*
X160930238Y-111011097D01*
X160930238Y-111011097D02*
X160748809Y-111071573D01*
X160748809Y-111071573D02*
X160627857Y-111071573D01*
X160627857Y-111071573D02*
X160446428Y-111011097D01*
X160446428Y-111011097D02*
X160325476Y-110890145D01*
X160325476Y-110890145D02*
X160264999Y-110769192D01*
X160264999Y-110769192D02*
X160204523Y-110527288D01*
X160204523Y-110527288D02*
X160204523Y-110345859D01*
X160204523Y-110345859D02*
X160264999Y-110103954D01*
X160264999Y-110103954D02*
X160325476Y-109983002D01*
X160325476Y-109983002D02*
X160446428Y-109862050D01*
X160446428Y-109862050D02*
X160627857Y-109801573D01*
X160627857Y-109801573D02*
X160748809Y-109801573D01*
X160748809Y-109801573D02*
X160930238Y-109862050D01*
X160930238Y-109862050D02*
X160990714Y-109922526D01*
X162200238Y-111071573D02*
X161474523Y-111071573D01*
X161837380Y-111071573D02*
X161837380Y-109801573D01*
X161837380Y-109801573D02*
X161716428Y-109983002D01*
X161716428Y-109983002D02*
X161595476Y-110103954D01*
X161595476Y-110103954D02*
X161474523Y-110164430D01*
%TO.C,Q1*%
X150129047Y-124337526D02*
X150008095Y-124277050D01*
X150008095Y-124277050D02*
X149887142Y-124156097D01*
X149887142Y-124156097D02*
X149705714Y-123974669D01*
X149705714Y-123974669D02*
X149584761Y-123914192D01*
X149584761Y-123914192D02*
X149463809Y-123914192D01*
X149524285Y-124216573D02*
X149403333Y-124156097D01*
X149403333Y-124156097D02*
X149282380Y-124035145D01*
X149282380Y-124035145D02*
X149221904Y-123793240D01*
X149221904Y-123793240D02*
X149221904Y-123369907D01*
X149221904Y-123369907D02*
X149282380Y-123128002D01*
X149282380Y-123128002D02*
X149403333Y-123007050D01*
X149403333Y-123007050D02*
X149524285Y-122946573D01*
X149524285Y-122946573D02*
X149766190Y-122946573D01*
X149766190Y-122946573D02*
X149887142Y-123007050D01*
X149887142Y-123007050D02*
X150008095Y-123128002D01*
X150008095Y-123128002D02*
X150068571Y-123369907D01*
X150068571Y-123369907D02*
X150068571Y-123793240D01*
X150068571Y-123793240D02*
X150008095Y-124035145D01*
X150008095Y-124035145D02*
X149887142Y-124156097D01*
X149887142Y-124156097D02*
X149766190Y-124216573D01*
X149766190Y-124216573D02*
X149524285Y-124216573D01*
X151278095Y-124216573D02*
X150552380Y-124216573D01*
X150915237Y-124216573D02*
X150915237Y-122946573D01*
X150915237Y-122946573D02*
X150794285Y-123128002D01*
X150794285Y-123128002D02*
X150673333Y-123248954D01*
X150673333Y-123248954D02*
X150552380Y-123309430D01*
%TO.C,L1*%
X149466573Y-117711666D02*
X149466573Y-118316428D01*
X149466573Y-118316428D02*
X148196573Y-118316428D01*
X149466573Y-116623094D02*
X149466573Y-117348809D01*
X149466573Y-116985952D02*
X148196573Y-116985952D01*
X148196573Y-116985952D02*
X148378002Y-117106904D01*
X148378002Y-117106904D02*
X148498954Y-117227856D01*
X148498954Y-117227856D02*
X148559430Y-117348809D01*
%TO.C,C3*%
X151595621Y-114211666D02*
X151656097Y-114272142D01*
X151656097Y-114272142D02*
X151716573Y-114453571D01*
X151716573Y-114453571D02*
X151716573Y-114574523D01*
X151716573Y-114574523D02*
X151656097Y-114755952D01*
X151656097Y-114755952D02*
X151535145Y-114876904D01*
X151535145Y-114876904D02*
X151414192Y-114937381D01*
X151414192Y-114937381D02*
X151172288Y-114997857D01*
X151172288Y-114997857D02*
X150990859Y-114997857D01*
X150990859Y-114997857D02*
X150748954Y-114937381D01*
X150748954Y-114937381D02*
X150628002Y-114876904D01*
X150628002Y-114876904D02*
X150507050Y-114755952D01*
X150507050Y-114755952D02*
X150446573Y-114574523D01*
X150446573Y-114574523D02*
X150446573Y-114453571D01*
X150446573Y-114453571D02*
X150507050Y-114272142D01*
X150507050Y-114272142D02*
X150567526Y-114211666D01*
X150446573Y-113788333D02*
X150446573Y-113002142D01*
X150446573Y-113002142D02*
X150930383Y-113425476D01*
X150930383Y-113425476D02*
X150930383Y-113244047D01*
X150930383Y-113244047D02*
X150990859Y-113123095D01*
X150990859Y-113123095D02*
X151051335Y-113062619D01*
X151051335Y-113062619D02*
X151172288Y-113002142D01*
X151172288Y-113002142D02*
X151474669Y-113002142D01*
X151474669Y-113002142D02*
X151595621Y-113062619D01*
X151595621Y-113062619D02*
X151656097Y-113123095D01*
X151656097Y-113123095D02*
X151716573Y-113244047D01*
X151716573Y-113244047D02*
X151716573Y-113606904D01*
X151716573Y-113606904D02*
X151656097Y-113727857D01*
X151656097Y-113727857D02*
X151595621Y-113788333D01*
D10*
%TO.C,R4*%
X145967380Y-104366666D02*
X145491190Y-104699999D01*
X145967380Y-104938094D02*
X144967380Y-104938094D01*
X144967380Y-104938094D02*
X144967380Y-104557142D01*
X144967380Y-104557142D02*
X145015000Y-104461904D01*
X145015000Y-104461904D02*
X145062619Y-104414285D01*
X145062619Y-104414285D02*
X145157857Y-104366666D01*
X145157857Y-104366666D02*
X145300714Y-104366666D01*
X145300714Y-104366666D02*
X145395952Y-104414285D01*
X145395952Y-104414285D02*
X145443571Y-104461904D01*
X145443571Y-104461904D02*
X145491190Y-104557142D01*
X145491190Y-104557142D02*
X145491190Y-104938094D01*
X145300714Y-103509523D02*
X145967380Y-103509523D01*
X144919761Y-103747618D02*
X145634047Y-103985713D01*
X145634047Y-103985713D02*
X145634047Y-103366666D01*
D12*
%TO.C,J1*%
X156080000Y-124250000D02*
X156080000Y-122450000D01*
X156080000Y-126350000D02*
X156080000Y-127500000D01*
X165420000Y-124250000D02*
X165420000Y-122450000D01*
X165420000Y-126350000D02*
X165420000Y-127500000D01*
%TO.C,R3*%
X148765000Y-104427064D02*
X148765000Y-103972936D01*
X150235000Y-104427064D02*
X150235000Y-103972936D01*
D13*
%TO.C,R2*%
X153500000Y-119975000D02*
X153500000Y-121025000D01*
D12*
%TO.C,J2*%
X170170000Y-102380000D02*
X171500000Y-102380000D01*
X170170000Y-103710000D02*
X170170000Y-102380000D01*
X170170000Y-104980000D02*
X170170000Y-117740000D01*
X170170000Y-104980000D02*
X172830000Y-104980000D01*
X170170000Y-117740000D02*
X172830000Y-117740000D01*
X172830000Y-104980000D02*
X172830000Y-117740000D01*
D13*
%TO.C,R1*%
X168000000Y-121025000D02*
X168000000Y-119975000D01*
D12*
%TO.C,J3*%
X144170000Y-125645000D02*
X145500000Y-125645000D01*
X144170000Y-126975000D02*
X144170000Y-125645000D01*
X144170000Y-128245000D02*
X144170000Y-130845000D01*
X144170000Y-128245000D02*
X146830000Y-128245000D01*
X144170000Y-130845000D02*
X146830000Y-130845000D01*
X146830000Y-128245000D02*
X146830000Y-130845000D01*
%TO.C,J5*%
X166920000Y-122895000D02*
X168250000Y-122895000D01*
X166920000Y-124225000D02*
X166920000Y-122895000D01*
X166920000Y-125495000D02*
X166920000Y-128095000D01*
X166920000Y-125495000D02*
X169580000Y-125495000D01*
X166920000Y-128095000D02*
X169580000Y-128095000D01*
X169580000Y-125495000D02*
X169580000Y-128095000D01*
D13*
%TO.C,Q2*%
X144175000Y-122625000D02*
X144650000Y-122625000D01*
X145000000Y-122750000D02*
X146000000Y-122750000D01*
X145000000Y-124750000D02*
X145000000Y-122750000D01*
X146000000Y-122750000D02*
X146000000Y-124750000D01*
X146000000Y-124750000D02*
X145000000Y-124750000D01*
%TO.C,IC3*%
X143875000Y-111997000D02*
X145025000Y-111997000D01*
X145375000Y-112040000D02*
X146125000Y-112040000D01*
X145375000Y-114960000D02*
X145375000Y-112040000D01*
X146125000Y-112040000D02*
X146125000Y-114960000D01*
X146125000Y-114960000D02*
X145375000Y-114960000D01*
%TO.C,IC2*%
X143875000Y-115997000D02*
X145025000Y-115997000D01*
X145375000Y-116040000D02*
X146125000Y-116040000D01*
X145375000Y-118960000D02*
X145375000Y-116040000D01*
X146125000Y-116040000D02*
X146125000Y-118960000D01*
X146125000Y-118960000D02*
X145375000Y-118960000D01*
%TO.C,L2*%
X149525000Y-113500000D02*
X148475000Y-113500000D01*
D12*
%TO.C,J4*%
X148920000Y-125645000D02*
X150250000Y-125645000D01*
X148920000Y-126975000D02*
X148920000Y-125645000D01*
X148920000Y-128245000D02*
X148920000Y-130845000D01*
X148920000Y-128245000D02*
X151580000Y-128245000D01*
X148920000Y-130845000D02*
X151580000Y-130845000D01*
X151580000Y-128245000D02*
X151580000Y-130845000D01*
D14*
%TO.C,IC4*%
X145900000Y-107250000D02*
X145900000Y-107250000D01*
X145900000Y-107350000D02*
X145900000Y-107350000D01*
X145900000Y-107350000D02*
G75*
G03*
X145900000Y-107250000I0J50000D01*
G01*
X145900000Y-107250000D02*
G75*
G03*
X145900000Y-107350000I0J-50000D01*
G01*
D15*
%TO.C,IC5*%
X148150000Y-107100000D02*
G75*
G03*
X148150000Y-107100000I-125000J0D01*
G01*
D13*
%TO.C,C1*%
X145750000Y-119800000D02*
X145750000Y-121200000D01*
D14*
%TO.C,IC1*%
X152600000Y-104605000D02*
X152600000Y-104605000D01*
X152700000Y-104605000D02*
X152700000Y-104605000D01*
X152700000Y-104605000D02*
G75*
G03*
X152600000Y-104605000I-50000J0D01*
G01*
X152600000Y-104605000D02*
G75*
G03*
X152700000Y-104605000I50000J0D01*
G01*
D13*
%TO.C,Q1*%
X148925000Y-122625000D02*
X149400000Y-122625000D01*
X149750000Y-122750000D02*
X150750000Y-122750000D01*
X149750000Y-124750000D02*
X149750000Y-122750000D01*
X150750000Y-122750000D02*
X150750000Y-124750000D01*
X150750000Y-124750000D02*
X149750000Y-124750000D01*
%TO.C,L1*%
X149525000Y-117500000D02*
X148475000Y-117500000D01*
%TO.C,C3*%
X150675000Y-114000000D02*
X151825000Y-114000000D01*
D12*
%TO.C,R4*%
X144865000Y-104427064D02*
X144865000Y-103972936D01*
X146335000Y-104427064D02*
X146335000Y-103972936D01*
%TD*%
M02*
