%TF.GenerationSoftware,KiCad,Pcbnew,(7.0.0)*%
%TF.CreationDate,2023-03-11T14:16:37+01:00*%
%TF.ProjectId,AVI_Computer,4156495f-436f-46d7-9075-7465722e6b69,rev?*%
%TF.SameCoordinates,Original*%
%TF.FileFunction,Copper,L2,Bot*%
%TF.FilePolarity,Positive*%
%FSLAX46Y46*%
G04 Gerber Fmt 4.6, Leading zero omitted, Abs format (unit mm)*
G04 Created by KiCad (PCBNEW (7.0.0)) date 2023-03-11 14:16:37*
%MOMM*%
%LPD*%
G01*
G04 APERTURE LIST*
%TA.AperFunction,ComponentPad*%
%ADD10O,1.000000X2.100000*%
%TD*%
%TA.AperFunction,ComponentPad*%
%ADD11O,1.000000X1.800000*%
%TD*%
%TA.AperFunction,ComponentPad*%
%ADD12R,1.700000X1.700000*%
%TD*%
%TA.AperFunction,ComponentPad*%
%ADD13O,1.700000X1.700000*%
%TD*%
%TA.AperFunction,ViaPad*%
%ADD14C,0.400000*%
%TD*%
%TA.AperFunction,ViaPad*%
%ADD15C,0.800000*%
%TD*%
%TA.AperFunction,ViaPad*%
%ADD16C,0.460000*%
%TD*%
%TA.AperFunction,Conductor*%
%ADD17C,0.250000*%
%TD*%
G04 APERTURE END LIST*
D10*
%TO.P,J1,S1,SHIELD*%
%TO.N,GND*%
X156429999Y-121144999D03*
D11*
X156429999Y-125324999D03*
D10*
X165069999Y-121144999D03*
D11*
X165069999Y-125324999D03*
%TD*%
D12*
%TO.P,J2,1,Pin_1*%
%TO.N,+3.3V*%
X171499999Y-103709999D03*
D13*
%TO.P,J2,2,Pin_2*%
%TO.N,/MOSI*%
X171499999Y-106249999D03*
%TO.P,J2,3,Pin_3*%
%TO.N,/MISO*%
X171499999Y-108789999D03*
%TO.P,J2,4,Pin_4*%
%TO.N,/CLK*%
X171499999Y-111329999D03*
%TO.P,J2,5,Pin_5*%
%TO.N,/CS*%
X171499999Y-113869999D03*
%TO.P,J2,6,Pin_6*%
%TO.N,GND*%
X171499999Y-116409999D03*
%TD*%
D12*
%TO.P,J3,1,Pin_1*%
%TO.N,/Motor1+*%
X145499999Y-126974999D03*
D13*
%TO.P,J3,2,Pin_2*%
%TO.N,GND*%
X145499999Y-129514999D03*
%TD*%
D12*
%TO.P,J5,1,Pin_1*%
%TO.N,+5V*%
X168249999Y-124224999D03*
D13*
%TO.P,J5,2,Pin_2*%
%TO.N,GND*%
X168249999Y-126764999D03*
%TD*%
D12*
%TO.P,J4,1,Pin_1*%
%TO.N,/Motor2+*%
X150249999Y-126974999D03*
D13*
%TO.P,J4,2,Pin_2*%
%TO.N,GND*%
X150249999Y-129514999D03*
%TD*%
D14*
%TO.N,+3.3V*%
X145800000Y-108800000D03*
X149400000Y-108800000D03*
X144000000Y-110600000D03*
D15*
%TO.N,Net-(IC1-IO3)*%
X147750000Y-125750000D03*
X155250000Y-109750000D03*
%TO.N,Net-(IC1-IO4)*%
X152500000Y-125750000D03*
X155250000Y-110750000D03*
%TO.N,/CS*%
X169750000Y-113750000D03*
X156600000Y-114000000D03*
%TO.N,/MOSI*%
X156600000Y-115000000D03*
X169750000Y-106250000D03*
%TO.N,/CLK*%
X156600000Y-116000000D03*
X169750000Y-111250000D03*
D14*
%TO.N,GND*%
X150200000Y-116000000D03*
X151400000Y-117000000D03*
D16*
X158400000Y-123200000D03*
X157550000Y-120570000D03*
D15*
%TO.N,+5V*%
X154500000Y-122000000D03*
X144500000Y-122000000D03*
D14*
%TO.N,/sda*%
X145424114Y-108424002D03*
X149400000Y-108000000D03*
D15*
X145600000Y-105200000D03*
X152800000Y-108800000D03*
%TO.N,/MISO*%
X157600000Y-116000000D03*
X169750000Y-108750000D03*
%TD*%
D17*
%TO.N,+3.3V*%
X145800000Y-108800000D02*
X149400000Y-108800000D01*
X144000000Y-110600000D02*
X145800000Y-108800000D01*
%TO.N,Net-(IC1-IO3)*%
X155275305Y-109750000D02*
X155250000Y-109750000D01*
X143775000Y-122300305D02*
X143775000Y-121025000D01*
X143775000Y-121025000D02*
X155050000Y-109750000D01*
X155050000Y-109750000D02*
X155250000Y-109750000D01*
X147224695Y-125750000D02*
X143775000Y-122300305D01*
X147750000Y-125750000D02*
X147224695Y-125750000D01*
%TO.N,Net-(IC1-IO4)*%
X155605000Y-122645000D02*
X155605000Y-111105000D01*
X152500000Y-125750000D02*
X155605000Y-122645000D01*
X155605000Y-111105000D02*
X155250000Y-110750000D01*
%TO.N,/CS*%
X171986701Y-105075000D02*
X172675000Y-105763299D01*
X156600000Y-114000000D02*
X165525000Y-105075000D01*
X172675000Y-112695000D02*
X171500000Y-113870000D01*
X172675000Y-105763299D02*
X172675000Y-112695000D01*
X165525000Y-105075000D02*
X171986701Y-105075000D01*
X169750000Y-113750000D02*
X169500000Y-114000000D01*
%TO.N,/MOSI*%
X169750000Y-106250000D02*
X161000000Y-115000000D01*
X161000000Y-115000000D02*
X156600000Y-115000000D01*
%TO.N,/CLK*%
X164275000Y-116725000D02*
X157299695Y-116725000D01*
X169750000Y-111250000D02*
X164275000Y-116725000D01*
X156600000Y-116025305D02*
X156600000Y-116000000D01*
X157299695Y-116725000D02*
X156600000Y-116025305D01*
%TO.N,GND*%
X165070000Y-121145000D02*
X165070000Y-121204949D01*
X157005000Y-120570000D02*
X156430000Y-121145000D01*
X151200000Y-117000000D02*
X150200000Y-116000000D01*
X157160000Y-121960000D02*
X157160000Y-120960000D01*
X157160000Y-120960000D02*
X157550000Y-120570000D01*
X157550000Y-120570000D02*
X157005000Y-120570000D01*
X163074949Y-123200000D02*
X158400000Y-123200000D01*
X151400000Y-117000000D02*
X151200000Y-117000000D01*
X158400000Y-123200000D02*
X157160000Y-121960000D01*
X165070000Y-121204949D02*
X163074949Y-123200000D01*
%TO.N,+5V*%
X154500000Y-122000000D02*
X144500000Y-122000000D01*
%TO.N,/sda*%
X150200000Y-108800000D02*
X152800000Y-108800000D01*
X149400000Y-108000000D02*
X148400000Y-108000000D01*
X149400000Y-108000000D02*
X150200000Y-108800000D01*
X145424114Y-108424002D02*
X145424114Y-105375886D01*
X148400000Y-108000000D02*
X145600000Y-105200000D01*
X145424114Y-105375886D02*
X145600000Y-105200000D01*
%TO.N,/MISO*%
X162500000Y-116000000D02*
X157600000Y-116000000D01*
X169750000Y-108750000D02*
X162500000Y-116000000D01*
%TD*%
M02*
